HIERARCHY
ROOT Hips
{
	OFFSET 0.00000 0.00000 0.00000
	CHANNELS 6 Xposition Yposition Zposition Zrotation Yrotation Xrotation 
	JOINT LHipJoint
	{
		OFFSET 0 0 0
		CHANNELS 3 Zrotation Yrotation Xrotation
		JOINT LeftHip
		{
			OFFSET 1.42746 -1.72089 0.83059
			CHANNELS 3 Zrotation Yrotation Xrotation
			JOINT LeftKnee
			{
				OFFSET 2.32949 -6.40022 0.00000
				CHANNELS 3 Zrotation Yrotation Xrotation
				JOINT LeftAnkle
				{
					OFFSET 2.54359 -6.98847 0.00000
					CHANNELS 3 Zrotation Yrotation Xrotation
					JOINT LeftToe
					{
						OFFSET 0.13146 -0.36118 2.00184
						CHANNELS 3 Zrotation Yrotation Xrotation
						End Site
						{
							OFFSET 0.00000 -0.00000 1.02854
						}
					}
				}
			}
		}
	}
	JOINT RHipJoint
	{
		OFFSET 0 0 0
		CHANNELS 3 Zrotation Yrotation Xrotation
		JOINT RightHip
		{
			OFFSET -1.40185 -1.72089 0.83060
			CHANNELS 3 Zrotation Yrotation Xrotation
			JOINT RightKnee
			{
				OFFSET -2.37192 -6.51680 0.00000
				CHANNELS 3 Zrotation Yrotation Xrotation
				JOINT RightAnkle
				{
					OFFSET -2.54841 -7.00172 0.00000
					CHANNELS 3 Zrotation Yrotation Xrotation
					JOINT RightToe
					{
						OFFSET -0.12890 -0.35415 1.86474
						CHANNELS 3 Zrotation Yrotation Xrotation
						End Site
						{
							OFFSET -0.00000 -0.00000 0.96145
						}
					}
				}
			}
		}
	}
	JOINT lowerback
	{
		OFFSET 0 0 0
		CHANNELS 3 Zrotation Yrotation Xrotation
		JOINT Chest
		{
			OFFSET -0.05681 1.94777 0.23412
			CHANNELS 3 Zrotation Yrotation Xrotation
			JOINT Chest2
			{
				OFFSET 0.02153 1.96861 0.02875
				CHANNELS 3 Zrotation Yrotation Xrotation
				JOINT lowerneck
				{
					OFFSET 0 0 0
					CHANNELS 3 Zrotation Yrotation Xrotation
					JOINT Neck
					{
						OFFSET -0.00504 1.72650 0.04960
						CHANNELS 3 Zrotation Yrotation Xrotation
						JOINT Head
						{
							OFFSET 0.04679 1.68267 -0.08069
							CHANNELS 3 Zrotation Yrotation Xrotation
							End Site
							{
								OFFSET 0.01603 1.78888 -0.03747
							}
						}
					}
				}
				JOINT LeftCollar
				{
					OFFSET 0 0 0
					CHANNELS 3 Zrotation Yrotation Xrotation
					JOINT LeftShoulder
					{
						OFFSET 3.06480 1.32946 -0.48278
CHANNELS 3 Zrotation Xrotation Yrotation
						JOINT LeftElbow
						{
OFFSET 0 -4.947620 -0.000000
CHANNELS 3 Zrotation Xrotation Yrotation
							JOINT LeftWrist
							{
OFFSET 0 -3.111440 -0.000030
CHANNELS 3 Zrotation Xrotation Yrotation
								JOINT lhand
								{
									OFFSET 0 0 0
CHANNELS 3 Zrotation Xrotation Yrotation
									JOINT LFingers
									{
OFFSET 0 -0.686390 -0.000000
CHANNELS 3 Zrotation Xrotation Yrotation
										End Site
										{
OFFSET 0 -0.553380 -0.000000
										}
									}
								}
								JOINT LThumb
								{
OFFSET 0 0.000000 0.000000
CHANNELS 3 Zrotation Xrotation Yrotation
									End Site
									{
OFFSET 0 -0.561830 0.561830
									}
								}
							}
						}
					}
				}
				JOINT RightCollar
				{
					OFFSET 0 0 0
					CHANNELS 3 Zrotation Yrotation Xrotation
					JOINT RightShoulder
					{
						OFFSET -3.34868 1.12889 -0.10712
CHANNELS 3 Zrotation Xrotation Yrotation
						JOINT RightElbow
						{
OFFSET 0 -4.775660 0.000940
CHANNELS 3 Zrotation Xrotation Yrotation
							JOINT RightWrist
							{
OFFSET 0 -3.214330 -0.000000
CHANNELS 3 Zrotation Xrotation Yrotation
								JOINT rhand
								{
									OFFSET 0 0 0
CHANNELS 3 Zrotation Xrotation Yrotation
									JOINT RFingers
									{
OFFSET 0 -0.625460 -0.003840
CHANNELS 3 Zrotation Xrotation Yrotation
										End Site
										{
OFFSET 0 -0.505650 -0.000000
										}
									}
								}
								JOINT RThumb
								{
OFFSET 0 0.000000 0.000000
CHANNELS 3 Zrotation Xrotation Yrotation
									End Site
									{
OFFSET 0 -0.511650 0.509530
									}
								}
							}
						}
					}
				}
			}
		}
	}
}
MOTION
Frames: 4
Frame Time: 0.008333333333333333
0.529100 16.528200 -7.246900 1.250400 -2.701900 19.762000 0.000000 0.000000 0.000000 -21.789400 -2.339400 -32.186600 3.278400 11.132700 32.728700 1.423100 -5.230000 -21.447200 0.308300 -3.569800 -9.869400 0.000000 0.000000 0.000000 18.952300 -0.142100 -34.187700 -3.760100 -11.834100 35.147600 -1.852300 8.088200 -24.405700 -0.557500 4.782800 -13.290200 -3.112300 -1.127800 -17.822700 1.351600 -1.020100 -5.250300 2.985800 -0.510200 4.422900 -1.158900 -1.384400 -6.012700 -0.056600 -1.742500 9.993000 0.088200 -0.907900 4.381000 -0.000000 -0.000000 0.000000 0.679500 4.130700 -35.098000 12.098800 -19.952700 2.135900 26.873700 0.891500 23.943600 0.000000 0.000000 0.000000 -7.125000 0.000000 0.000000 -1.480300 3.522800 -1.387000 -0.000000 -0.000000 0.000000 -1.029600 2.555300 31.658800 -11.889500 -19.638700 -2.065000 -17.703100 16.834100 30.952600 0.000000 0.000000 0.000000 7.125000 0.000000 -0.000000 16.462200 61.421800 -6.683100
0.529697 16.528069 -7.254580 1.042489 -2.563627 19.714118 0.000000 0.000000 0.000000 -21.588848 -2.126138 -32.312517 3.293687 11.155935 32.807603 1.419456 -5.301593 -21.412426 0.359000 -3.848931 -10.652023 0.000000 0.000000 0.000000 19.222595 -0.220376 -34.130339 -3.741043 -11.807534 35.054564 -1.846275 8.143012 -24.364059 -0.504565 4.553730 -12.639833 -2.820274 -1.119798 -17.633376 1.380018 -1.067409 -5.267086 2.840883 -0.530846 4.304924 -1.050336 -1.366966 -6.115917 -0.149700 -1.718857 10.083435 0.037639 -0.896893 4.432224 0.000000 0.000000 0.000000 0.740129 4.062382 -35.033779 12.089890 -19.939350 2.132830 26.060778 1.616125 23.173564 0.000000 0.000000 0.000000 -7.125000 0.000000 0.000000 -1.880218 4.513312 -1.726756 0.000000 0.000000 0.000000 -1.002350 2.586592 31.661966 -11.622691 -19.235983 -1.976580 -18.276334 17.876869 29.862199 0.000000 0.000000 0.000000 7.125000 0.000000 0.000000 15.075121 60.502000 -5.799920
0.533200 16.529419 -7.258061 1.036247 -2.369516 19.683229 0.000000 0.000000 0.000000 -21.568144 -2.225785 -32.277613 3.301261 11.167422 32.846786 1.432372 -5.247007 -21.518217 0.384810 -3.981646 -11.025306 0.000000 0.000000 0.000000 19.318921 -0.614323 -34.201844 -3.738918 -11.804677 35.044369 -1.838537 8.516504 -24.309342 -0.514510 4.597094 -12.762999 -2.653713 -1.155468 -17.548889 1.344703 -1.143326 -5.293439 2.693022 -0.566692 4.234462 -1.012405 -1.357176 -6.077134 -0.128917 -1.712351 9.999257 0.038949 -0.890978 4.393524 0.000000 0.000000 0.000000 0.829288 4.117395 -35.091626 12.069556 -19.908833 2.125898 26.306748 1.655103 23.367486 0.000000 0.000000 0.000000 -7.125000 0.000000 0.000000 -1.752469 4.256883 -1.618278 0.000000 0.000000 0.000000 -0.950125 2.579953 31.867769 -11.997109 -19.800293 -2.101330 -16.653485 16.280164 32.857768 0.000000 0.000000 0.000000 7.125000 0.000000 0.000000 19.189456 62.960683 -8.534112
0.529837 16.531023 -7.262764 1.019748 -2.494196 19.744574 0.000000 0.000000 0.000000 -21.561010 -2.086843 -32.379785 3.301155 11.167342 32.846412 1.420827 -5.637196 -21.394429 0.285208 -3.434387 -9.490496 0.000000 0.000000 0.000000 19.307024 -0.393329 -34.222341 -3.737916 -11.803268 35.039438 -1.841386 8.260487 -24.329466 -0.533915 4.682044 -13.003819 -2.712116 -1.133040 -17.651517 1.369195 -1.102601 -5.274065 2.760111 -0.547948 4.307897 -0.978849 -1.357878 -6.136519 -0.176045 -1.711108 9.954923 0.016958 -0.891295 4.388521 0.000000 0.000000 0.000000 0.770061 3.925225 -35.006748 12.003334 -19.809610 2.103391 26.090382 1.937036 23.030442 0.000000 0.000000 0.000000 -7.125000 0.000000 0.000000 -1.843242 4.661067 -1.688184 0.000000 0.000000 0.000000 -1.018030 2.682952 32.043124 -12.190670 -20.089560 -2.167637 -16.592081 16.116016 33.315348 0.000000 0.000000 0.000000 7.125000 0.000000 0.000000 19.709271 63.363272 -8.990414
